<svg width="753" height="810" viewBox="0 0 753 810" fill="none" xmlns="http://www.w3.org/2000/svg">
<path d="M708.344 616.712H142.338C131.837 616.699 123.327 608.195 123.315 597.7V137.081C123.327 126.586 131.837 118.081 142.338 118.069H708.344C718.844 118.081 727.354 126.586 727.366 137.081V597.7C727.354 608.195 718.844 616.699 708.344 616.712Z" fill="#E6E6E6"/>
<path d="M666.2 570.985H168.022C157.522 570.973 149.012 562.468 149 551.973V117.012C149.012 106.517 157.522 98.0121 168.022 98H708.364C718.865 98.0122 727.374 106.517 727.386 117.012V509.833C727.348 543.59 699.977 570.947 666.2 570.985Z" fill="white"/>
<path d="M290.96 226H284.03V203.5H290.51L291.275 207.37L290.555 206.56C291.005 205.66 291.815 204.805 292.985 203.995C294.155 203.185 295.67 202.78 297.53 202.78C299.51 202.78 301.1 203.275 302.3 204.265C303.5 205.255 304.385 206.545 304.955 208.135H303.875C304.235 206.545 305.105 205.255 306.485 204.265C307.865 203.275 309.515 202.78 311.435 202.78C314.345 202.78 316.52 203.56 317.96 205.12C319.4 206.65 320.12 208.705 320.12 211.285V226H313.19V213.22C313.19 211.81 312.845 210.76 312.155 210.07C311.495 209.38 310.61 209.035 309.5 209.035C308.84 209.035 308.21 209.185 307.61 209.485C307.01 209.755 306.515 210.25 306.125 210.97C305.735 211.66 305.54 212.65 305.54 213.94V226H298.61V213.22C298.61 211.81 298.28 210.775 297.62 210.115C296.96 209.425 296.075 209.08 294.965 209.08C294.305 209.08 293.66 209.23 293.03 209.53C292.43 209.8 291.935 210.295 291.545 211.015C291.155 211.705 290.96 212.68 290.96 213.94V226ZM331.87 226.585C329.5 226.585 327.61 225.94 326.2 224.65C324.82 223.33 324.13 221.575 324.13 219.385C324.13 217.315 324.835 215.665 326.245 214.435C327.685 213.205 329.755 212.485 332.455 212.275L338.755 211.78V211.42C338.755 210.67 338.605 210.055 338.305 209.575C338.005 209.065 337.57 208.69 337 208.45C336.46 208.18 335.77 208.045 334.93 208.045C333.46 208.045 332.335 208.315 331.555 208.855C330.805 209.395 330.43 210.175 330.43 211.195H324.67C324.67 209.485 325.105 208 325.975 206.74C326.845 205.48 328.075 204.505 329.665 203.815C331.285 203.125 333.16 202.78 335.29 202.78C337.48 202.78 339.325 203.17 340.825 203.95C342.355 204.73 343.51 205.87 344.29 207.37C345.1 208.87 345.505 210.7 345.505 212.86V226H339.385L338.935 223.03C338.575 224.05 337.72 224.905 336.37 225.595C335.05 226.255 333.55 226.585 331.87 226.585ZM334.3 221.455C335.62 221.455 336.7 221.14 337.54 220.51C338.38 219.85 338.8 218.875 338.8 217.585V216.37L335.29 216.685C333.79 216.805 332.725 217.06 332.095 217.45C331.495 217.81 331.195 218.35 331.195 219.07C331.195 219.88 331.45 220.48 331.96 220.87C332.47 221.26 333.25 221.455 334.3 221.455ZM349.35 214.345C349.35 212.065 349.8 210.055 350.7 208.315C351.63 206.575 352.905 205.21 354.525 204.22C356.175 203.23 358.05 202.735 360.15 202.735C361.92 202.735 363.435 203.095 364.695 203.815C365.985 204.535 366.87 205.48 367.35 206.65L366.675 207.1L367.215 203.5H373.74V224.56C373.74 227.23 373.245 229.525 372.255 231.445C371.265 233.395 369.855 234.88 368.025 235.9C366.195 236.95 363.99 237.475 361.41 237.475C357.96 237.475 355.155 236.545 352.995 234.685C350.835 232.855 349.59 230.35 349.26 227.17H356.28C356.34 228.43 356.82 229.405 357.72 230.095C358.62 230.815 359.835 231.175 361.365 231.175C363.045 231.175 364.365 230.71 365.325 229.78C366.315 228.85 366.81 227.59 366.81 226V221.23L367.575 221.815C367.095 222.985 366.165 223.93 364.785 224.65C363.405 225.37 361.815 225.73 360.015 225.73C357.915 225.73 356.055 225.25 354.435 224.29C352.845 223.33 351.6 221.995 350.7 220.285C349.8 218.575 349.35 216.595 349.35 214.345ZM356.325 214.165C356.325 215.245 356.55 216.205 357 217.045C357.45 217.855 358.065 218.5 358.845 218.98C359.625 219.46 360.525 219.7 361.545 219.7C362.595 219.7 363.51 219.475 364.29 219.025C365.1 218.545 365.715 217.9 366.135 217.09C366.585 216.25 366.81 215.275 366.81 214.165C366.81 213.055 366.585 212.11 366.135 211.33C365.715 210.52 365.1 209.89 364.29 209.44C363.51 208.99 362.58 208.765 361.5 208.765C360.48 208.765 359.58 208.99 358.8 209.44C358.02 209.89 357.405 210.52 356.955 211.33C356.535 212.14 356.325 213.085 356.325 214.165ZM385.882 226H378.952V203.5H385.477L385.927 205.84C386.617 204.88 387.562 204.13 388.762 203.59C389.992 203.05 391.342 202.78 392.812 202.78C395.482 202.78 397.552 203.605 399.022 205.255C400.522 206.875 401.272 209.155 401.272 212.095V226H394.342V213.76C394.342 212.35 393.982 211.225 393.262 210.385C392.542 209.515 391.582 209.08 390.382 209.08C389.002 209.08 387.907 209.5 387.097 210.34C386.287 211.15 385.882 212.26 385.882 213.67V226ZM406.242 226V203.5H413.172V226H406.242ZM409.662 199.99C408.552 199.99 407.607 199.615 406.827 198.865C406.077 198.085 405.702 197.14 405.702 196.03C405.702 194.92 406.077 193.99 406.827 193.24C407.607 192.49 408.552 192.115 409.662 192.115C410.742 192.115 411.657 192.49 412.407 193.24C413.187 193.99 413.577 194.92 413.577 196.03C413.577 197.14 413.187 198.085 412.407 198.865C411.657 199.615 410.742 199.99 409.662 199.99ZM425.301 226H418.371V192.07H425.301V226ZM429.285 214.705C429.285 212.335 429.81 210.265 430.86 208.495C431.94 206.695 433.41 205.3 435.27 204.31C437.16 203.32 439.305 202.825 441.705 202.825C444.105 202.825 446.235 203.32 448.095 204.31C449.955 205.3 451.41 206.695 452.46 208.495C453.54 210.265 454.08 212.335 454.08 214.705C454.08 217.075 453.54 219.145 452.46 220.915C451.41 222.685 449.955 224.065 448.095 225.055C446.235 226.045 444.105 226.54 441.705 226.54C439.305 226.54 437.16 226.045 435.27 225.055C433.41 224.065 431.94 222.685 430.86 220.915C429.81 219.145 429.285 217.075 429.285 214.705ZM436.26 214.66C436.26 215.8 436.485 216.805 436.935 217.675C437.415 218.515 438.06 219.175 438.87 219.655C439.68 220.105 440.625 220.33 441.705 220.33C442.785 220.33 443.73 220.105 444.54 219.655C445.35 219.175 445.98 218.515 446.43 217.675C446.88 216.805 447.105 215.8 447.105 214.66C447.105 213.52 446.88 212.53 446.43 211.69C445.98 210.85 445.35 210.205 444.54 209.755C443.73 209.275 442.785 209.035 441.705 209.035C440.625 209.035 439.68 209.275 438.87 209.755C438.06 210.205 437.415 210.85 436.935 211.69C436.485 212.53 436.26 213.52 436.26 214.66ZM456.882 214.39C456.882 211.96 457.332 209.89 458.232 208.18C459.132 206.44 460.377 205.105 461.967 204.175C463.587 203.245 465.432 202.78 467.502 202.78C469.092 202.78 470.547 203.095 471.867 203.725C473.187 204.355 474.162 205.195 474.792 206.245L475.152 203.5H481.677V236.8H474.747V223.75C474.087 224.59 473.097 225.28 471.777 225.82C470.457 226.36 469.017 226.63 467.457 226.63C465.237 226.63 463.332 226.105 461.742 225.055C460.152 224.005 458.937 222.565 458.097 220.735C457.287 218.875 456.882 216.76 456.882 214.39ZM463.857 214.75C463.857 215.86 464.067 216.835 464.487 217.675C464.937 218.515 465.567 219.175 466.377 219.655C467.187 220.135 468.132 220.375 469.212 220.375C470.292 220.375 471.237 220.15 472.047 219.7C472.887 219.22 473.532 218.56 473.982 217.72C474.462 216.85 474.702 215.86 474.702 214.75C474.702 213.61 474.462 212.62 473.982 211.78C473.532 210.94 472.887 210.295 472.047 209.845C471.237 209.365 470.292 209.125 469.212 209.125C468.132 209.125 467.187 209.365 466.377 209.845C465.567 210.325 464.937 210.985 464.487 211.825C464.067 212.665 463.857 213.64 463.857 214.75ZM501.821 203.5H508.751V226H502.226L501.776 223.48C501.086 224.41 500.096 225.16 498.806 225.73C497.546 226.3 496.241 226.585 494.891 226.585C492.341 226.585 490.316 225.79 488.816 224.2C487.346 222.58 486.611 220.39 486.611 217.63V203.5H493.541V215.11C493.541 216.94 493.871 218.29 494.531 219.16C495.191 220 496.226 220.42 497.636 220.42C499.136 220.42 500.201 220.015 500.831 219.205C501.491 218.365 501.821 217.03 501.821 215.2V203.5ZM523.952 226.585C521.702 226.585 519.692 226.075 517.922 225.055C516.182 224.035 514.802 222.64 513.782 220.87C512.792 219.07 512.297 217.015 512.297 214.705C512.297 212.365 512.777 210.31 513.737 208.54C514.727 206.74 516.092 205.33 517.832 204.31C519.572 203.29 521.567 202.78 523.817 202.78C526.187 202.78 528.227 203.275 529.937 204.265C531.647 205.225 532.967 206.605 533.897 208.405C534.827 210.175 535.292 212.29 535.292 214.75V216.505L515.942 216.595L516.032 212.32H528.407C528.407 211.12 528.002 210.175 527.192 209.485C526.382 208.765 525.272 208.405 523.862 208.405C522.692 208.405 521.732 208.63 520.982 209.08C520.262 209.53 519.722 210.235 519.362 211.195C519.002 212.125 518.822 213.325 518.822 214.795C518.822 216.895 519.242 218.455 520.082 219.475C520.952 220.465 522.287 220.96 524.087 220.96C525.407 220.96 526.502 220.735 527.372 220.285C528.242 219.835 528.797 219.205 529.037 218.395H535.382C534.992 220.885 533.762 222.88 531.692 224.38C529.622 225.85 527.042 226.585 523.952 226.585ZM546.326 226H539.396V203.5H545.921L546.371 205.84C547.061 204.88 548.006 204.13 549.206 203.59C550.436 203.05 551.786 202.78 553.256 202.78C555.926 202.78 557.996 203.605 559.466 205.255C560.966 206.875 561.716 209.155 561.716 212.095V226H554.786V213.76C554.786 212.35 554.426 211.225 553.706 210.385C552.986 209.515 552.026 209.08 550.826 209.08C549.446 209.08 548.351 209.5 547.541 210.34C546.731 211.15 546.326 212.26 546.326 213.67V226ZM565.471 214.66C565.471 212.35 565.966 210.31 566.956 208.54C567.946 206.74 569.296 205.33 571.006 204.31C572.746 203.29 574.741 202.78 576.991 202.78C580.321 202.78 583.021 203.635 585.091 205.345C587.161 207.055 588.301 209.38 588.511 212.32H581.536C581.296 211.18 580.816 210.34 580.096 209.8C579.406 209.26 578.461 208.99 577.261 208.99C576.301 208.99 575.446 209.23 574.696 209.71C573.976 210.16 573.421 210.805 573.031 211.645C572.641 212.485 572.446 213.49 572.446 214.66C572.446 215.86 572.626 216.895 572.986 217.765C573.376 218.605 573.916 219.25 574.606 219.7C575.326 220.15 576.181 220.375 577.171 220.375C578.401 220.375 579.376 220.105 580.096 219.565C580.846 218.995 581.326 218.155 581.536 217.045H588.511C588.361 218.935 587.776 220.6 586.756 222.04C585.766 223.45 584.446 224.56 582.796 225.37C581.146 226.18 579.271 226.585 577.171 226.585C574.801 226.585 572.731 226.09 570.961 225.1C569.221 224.11 567.871 222.73 566.911 220.96C565.951 219.16 565.471 217.06 565.471 214.66ZM602.746 226.585C600.496 226.585 598.486 226.075 596.716 225.055C594.976 224.035 593.596 222.64 592.576 220.87C591.586 219.07 591.091 217.015 591.091 214.705C591.091 212.365 591.571 210.31 592.531 208.54C593.521 206.74 594.886 205.33 596.626 204.31C598.366 203.29 600.361 202.78 602.611 202.78C604.981 202.78 607.021 203.275 608.731 204.265C610.441 205.225 611.761 206.605 612.691 208.405C613.621 210.175 614.086 212.29 614.086 214.75V216.505L594.736 216.595L594.826 212.32H607.201C607.201 211.12 606.796 210.175 605.986 209.485C605.176 208.765 604.066 208.405 602.656 208.405C601.486 208.405 600.526 208.63 599.776 209.08C599.056 209.53 598.516 210.235 598.156 211.195C597.796 212.125 597.616 213.325 597.616 214.795C597.616 216.895 598.036 218.455 598.876 219.475C599.746 220.465 601.081 220.96 602.881 220.96C604.201 220.96 605.296 220.735 606.166 220.285C607.036 219.835 607.591 219.205 607.831 218.395H614.176C613.786 220.885 612.556 222.88 610.486 224.38C608.416 225.85 605.836 226.585 602.746 226.585Z" fill="black"/>
<path d="M631.611 281.568H288.96C286.25 281.568 284.054 279.373 284.054 276.665C284.054 273.957 286.25 271.762 288.96 271.762H631.611C634.321 271.762 636.517 273.957 636.517 276.665C636.517 279.373 634.321 281.568 631.611 281.568Z" fill="#E6E6E6"/>
<path d="M631.611 333.881H288.96C286.25 333.881 284.054 331.686 284.054 328.978C284.054 326.27 286.25 324.075 288.96 324.075H631.611C634.321 324.075 636.517 326.27 636.517 328.978C636.517 331.686 634.321 333.881 631.611 333.881Z" fill="#E6E6E6"/>
<path d="M631.611 386.195H288.96C286.25 386.195 284.054 383.999 284.054 381.292C284.054 378.584 286.25 376.388 288.96 376.388H631.611C634.321 376.388 636.517 378.584 636.517 381.292C636.517 384 634.321 386.195 631.611 386.195Z" fill="#E6E6E6"/>
<path d="M631.611 438.508H288.96C286.25 438.508 284.054 436.312 284.054 433.605C284.054 430.897 286.25 428.701 288.96 428.701H631.611C634.321 428.701 636.517 430.897 636.517 433.605C636.517 436.312 634.321 438.508 631.611 438.508Z" fill="#E6E6E6"/>
<path d="M676.84 142C663.121 142 652 153.115 652 166.825C652 180.536 663.121 191.65 676.84 191.65C690.559 191.65 701.68 180.535 701.68 166.825C701.68 153.114 690.559 142 676.84 142Z" fill="#547CF3"/>
<path d="M165.84 549C152.121 549 141 560.115 141 573.825C141 587.536 152.121 598.65 165.84 598.65C179.559 598.65 190.68 587.535 190.68 573.825C190.68 560.114 179.559 549 165.84 549Z" fill="#547CF3"/>
<path d="M661.84 545C648.121 545 637 556.115 637 569.825C637 583.536 648.121 594.65 661.84 594.65C675.559 594.65 686.68 583.535 686.68 569.825C686.68 556.114 675.559 545 661.84 545Z" fill="#547CF3"/>
<rect x="301" y="545" width="249" height="47" rx="10" fill="#547CF3"/>
<rect x="301" y="545" width="249" height="47" rx="10" fill="#547CF3"/>
<path d="M181.547 547.669C185.307 544.525 185.806 538.929 182.659 535.17C182.324 534.769 181.954 534.399 181.553 534.063L176.167 487.551L159.066 491.509L168.57 535.598C165.66 539.576 166.527 545.157 170.507 548.065C173.836 550.498 178.4 550.335 181.547 547.669Z" fill="#FFB6B6"/>
<path d="M179.78 495.135L159.982 507.479C159.982 507.479 158.777 514.714 157.416 496.532C157.273 494.635 158.598 491.328 158.453 489.38C158.288 487.183 151.99 486.183 151.824 483.959C151.706 482.377 153.527 480.969 153.41 479.39C153.231 476.999 153.054 474.621 152.881 472.282C152.735 470.325 150.566 469.084 150.427 467.196C150.286 465.291 152.174 462.739 152.041 460.934C151.043 447.399 154.494 413.348 154.494 412.655C154.227 410.916 153.501 409.281 152.39 407.917L153.447 404.758L152.748 398.831C151.83 391.043 153.468 383.168 157.416 376.391L162.444 373.101L185.643 412.101C175.881 445.849 169.508 459.105 179.78 495.135Z" fill="#547CF3"/>
<path d="M164.331 785.925H176.308L182.008 739.756H164.331V785.925Z" fill="#8D5524"/>
<path d="M160.423 777.727L179.557 776.585V784.779L197.748 797.335C200.075 798.941 200.659 802.128 199.052 804.454C198.096 805.838 196.521 806.664 194.838 806.664H172.059L168.133 798.56L166.599 806.664H158.011L160.423 777.727Z" fill="#2F2E41"/>
<path d="M231.605 785.925H243.581L249.279 739.756H231.605V785.925Z" fill="#8D5524"/>
<path d="M227.696 777.727L246.829 776.585V784.779L265.02 797.335C267.347 798.941 267.931 802.128 266.324 804.454C265.368 805.838 263.793 806.664 262.11 806.664H239.331L235.405 798.56L233.872 806.664H225.283L227.696 777.727Z" fill="#2F2E41"/>
<path d="M159.248 746.112H159.295L161.598 636.162C158.571 630.326 158.668 623.362 161.856 617.612L162.186 617.016L161.331 613.055C160.233 607.966 160.737 602.661 162.773 597.87L164.922 527.845C157.246 478.123 193.83 445.696 193.83 445.696H248.633L260.398 486.097C268.176 561.834 266.765 670.52 254.422 742.023L254.759 742.193C256.085 742.932 256.596 744.582 255.92 745.94C255.35 747.591 253.905 748.591 252.693 748.173L223.751 747.167C222.425 746.428 221.914 744.779 222.59 743.42C223.16 741.769 224.605 740.769 225.817 741.187L227.784 742.182L225.754 738.051C223.263 732.984 223.745 726.961 227.009 722.354L226.653 713.259C223.576 709.658 222.554 704.735 223.942 700.208L225.894 693.839L223.588 634.862L224.053 621.631L223.094 606.621L218.658 539.103L201.865 622.131L184.713 746.947C185.552 747.704 185.921 748.853 185.678 749.957C185.314 751.438 183.971 752.468 182.446 752.438H159.165C157.413 752.436 155.995 751.016 155.996 749.265C155.997 748.981 156.035 748.699 156.11 748.425C156.514 747.035 157.8 746.087 159.248 746.112Z" fill="#2F2E41"/>
<path d="M329.802 249.672C324.901 249.753 320.996 253.792 321.079 258.694C321.088 259.216 321.143 259.737 321.244 260.25L296.193 299.811L311.978 307.485L332.304 267.22C337.067 265.956 339.901 261.07 338.635 256.306C337.576 252.32 333.924 249.577 329.802 249.672Z" fill="#8D5524"/>
<path d="M234.282 387.674C234.282 387.674 250.398 444.674 249.668 450.432C248.163 462.306 174.105 498.805 168.598 482.563L169.288 477.224C166.506 471.662 183.481 449.589 184.305 446.702C185.352 443.01 180.612 430.889 180.612 430.889C180.612 430.889 183.889 419.823 183.365 412.973C182.832 406.123 181.252 407.179 175.454 402.954C169.657 398.739 160.165 379.244 160.165 379.244C160.165 379.244 164.383 360.272 164.383 356.581C164.383 352.889 181.707 346.6 183.811 344.498C184.727 343.277 185.498 341.953 186.109 340.554C186.535 339.702 186.264 337.725 186.719 336.746C187.01 336.107 188.028 336.504 188.329 335.845C188.62 335.206 188.368 334.469 188.658 333.84C189.037 333.006 189.948 332.28 190.307 331.495C191.955 327.89 193.36 324.954 193.797 324.954C194.844 324.954 228.601 329.702 228.601 329.702C230.438 332.542 232.556 335.191 234.922 337.609C238.616 341.291 255.902 350.253 255.902 350.253L234.282 387.674Z" fill="#547CF3"/>
<path d="M302.681 288.926C306.395 289.246 324.056 291.435 321.976 293.883C319.896 296.318 319.791 296.779 320.352 299.07C320.905 301.367 320.504 301.704 318.017 304.482C315.531 307.26 315.766 313.272 314.214 313.881C312.669 314.498 314.521 313.578 313.305 314.601C312.097 315.618 308.682 320.559 309.235 322.856C309.782 325.145 311.023 328.244 307.983 328.726C304.949 329.214 255.066 392.728 255.066 392.728L223.386 400.097L216.128 393.116C216.128 393.116 215.5 389.668 226.888 378.834C227.465 378.285 228.022 376.683 228.662 376.096C229.194 375.608 229.799 376.141 230.377 375.626C230.5 375.516 230.624 375.405 230.75 375.294C231.325 374.783 230.42 372.829 230.968 372.327C231.947 371.43 237.892 365.358 238.787 364.49C239.795 363.511 240.752 362.552 241.659 361.613C251.536 351.392 252.114 350.224 254.985 346.627C259.428 341.059 286.905 310.353 286.905 310.353C286.905 310.353 284.989 306.453 287.813 304.075C290.637 301.698 293.318 293.361 297.897 292.256C302.49 291.152 298.966 288.606 302.681 288.926Z" fill="#547CF3"/>
<path d="M208.092 323.872C221.905 323.872 233.103 312.681 233.103 298.875C233.103 285.07 221.905 273.878 208.092 273.878C194.279 273.878 183.081 285.07 183.081 298.875C183.081 312.681 194.279 323.872 208.092 323.872Z" fill="#8D5524"/>
<path d="M154.195 351.409C148.902 349.534 143.609 347.656 138.317 345.775C139.229 344.245 140.391 342.878 141.754 341.731C146.793 337.526 153.749 336.766 160.147 335.347C166.555 333.928 173.51 331.02 175.853 324.899C178.286 318.535 174.757 311.665 172.709 305.179C169.684 296.082 170.052 286.199 173.744 277.352C177.566 268.495 185.3 261.924 194.661 259.578C203.928 257.52 214.402 260.875 220.101 268.455C227.698 266.177 235.802 269.926 238.98 277.19C240.446 280.527 240.22 284.364 238.372 287.506C236.395 290.495 232.166 292.026 228.983 290.364L230.828 285.682C225.12 287.617 221.409 297.934 222.179 303.912C222.94 309.881 226.427 315.11 229.966 319.984C233.505 324.859 237.277 329.784 238.798 335.611C240.988 343.991 238.027 353.152 232.552 359.871C227.076 366.589 219.36 371.149 211.371 374.504C205.39 377.017 199.174 378.931 192.816 380.219C193.951 378.01 195.077 375.801 196.212 373.592L182.737 381.739C180.131 381.992 177.505 382.144 174.879 382.195C167.234 382.327 159.437 381.526 152.441 378.476C145.435 375.416 139.28 369.873 136.745 362.668C135.932 360.337 135.548 357.879 135.61 355.412C141.805 354.074 148 352.74 154.195 351.409Z" fill="#2F2E41"/>
<path d="M749.223 807H671.839L671.507 806.392C670.517 804.585 669.562 802.67 668.669 800.702C660.698 783.515 657.329 763.858 654.356 746.516L652.118 733.443C651.366 729.05 654.292 724.875 658.653 724.117C660.789 723.747 662.982 724.262 664.733 725.547C676.493 734.165 688.258 742.776 700.028 751.378C704.484 754.643 709.573 758.423 714.448 762.508C714.918 760.207 715.41 757.9 715.902 755.625C716.843 751.266 721.114 748.501 725.442 749.449C727.56 749.913 729.402 751.221 730.547 753.075L739.601 767.725C746.204 778.424 752.033 788.967 750.845 800.338C750.851 800.476 750.841 800.615 750.814 800.75C750.577 802.618 750.136 804.454 749.501 806.225L749.223 807Z" fill="#F0F0F0"/>
</svg>
