<svg width="168" height="141" viewBox="0 0 168 141" fill="none" xmlns="http://www.w3.org/2000/svg">
<path d="M164.984 141H33.6664L33.1022 139.968C31.4232 136.897 29.8022 133.644 28.2874 130.301C14.7607 101.104 9.04354 67.7113 3.99881 38.2494L0.200033 16.0419C-1.07636 8.5793 3.88896 1.48652 11.2907 0.199605C14.9139 -0.430585 18.6358 0.445572 21.6078 2.62782C41.5646 17.2689 61.5292 31.8962 81.5014 46.509C89.0637 52.057 97.7003 58.4777 105.972 65.4166C106.77 61.5089 107.604 57.5894 108.439 53.7245C110.036 46.3198 117.284 41.6224 124.629 43.2327C128.223 44.0209 131.348 46.2429 133.292 49.3921L148.656 74.2801C159.862 92.4552 169.753 110.365 167.737 129.682C167.747 129.917 167.73 130.152 167.685 130.383C167.282 133.556 166.534 136.675 165.456 139.683L164.984 141Z" fill="#547CF3"/>
</svg>
